# xmcd
#
# Track frame offsets:
#	150
#	18563
#	36237
#	49888
#	66608
#	78027
#	97738
#	110513
#	126575
#	142197
#	156051
#	174464
#	192138
#	205789
#	222509
#	233928
#	253639
#	266414
#	282476
#	298098
#
# Disc length: 4159 seconds
#
# Revision: 1
# Processed by: cddbd v1.5.2PL0 Copyright (c) Steve Scherf et al.
# Submitted via: audiograbber 1.83.01
#
DISCID=35103d14
DTITLE=Zequita - Busque a Deus
DYEAR=2011
DGENRE=Forró
TTITLE0=Busque a Deus
TTITLE1=Eu te Agradeço
TTITLE2=Glória para Todo Lado
TTITLE3=O Cego de Jericó
TTITLE4=O Poder da Oração
TTITLE5=Caminho sem Errar
TTITLE6=Arrebatamento
TTITLE7=Perto de Deus
TTITLE8=Te Louvarei
TTITLE9=Compromisso com Jesus
TTITLE10=Busque a Deus PB (01)
TTITLE11=Eu te Agradeço PB (02)
TTITLE12=Glória para Todo Lado PB (03)
TTITLE13=O Cego de Jericó PB (04)
TTITLE14=O Poder da Oração PB (05)
TTITLE15=Caminho sem Errar PB (06)
TTITLE16=Arrebatamento PB (07)
TTITLE17=Perto de Deus PB (08)
TTITLE18=Te Louvarei PB (09)
TTITLE19=Compromisso com Jesus PB (10)
EXTD=
EXTT0=
EXTT1=
EXTT2=
EXTT3=
EXTT4=
EXTT5=
EXTT6=
EXTT7=
EXTT8=
EXTT9=
EXTT10=
EXTT11=
EXTT12=
EXTT13=
EXTT14=
EXTT15=
EXTT16=
EXTT17=
EXTT18=
EXTT19=
PLAYORDER=
